<?xml version="1.0" encoding="utf-8" ?>
<svg baseProfile="full" height="24" version="1.1" width="24" xmlns="http://www.w3.org/2000/svg" xmlns:ev="http://www.w3.org/2001/xml-events" xmlns:xlink="http://www.w3.org/1999/xlink"><defs /><rect fill="rgb(0,0,0)" height="1" width="1" x="4" y="1" /><rect fill="rgb(0,0,0)" height="1" width="1" x="5" y="1" /><rect fill="rgb(0,0,0)" height="1" width="1" x="6" y="1" /><rect fill="rgb(0,0,0)" height="1" width="1" x="7" y="1" /><rect fill="rgb(0,0,0)" height="1" width="1" x="8" y="1" /><rect fill="rgb(0,0,0)" height="1" width="1" x="9" y="1" /><rect fill="rgb(0,0,0)" height="1" width="1" x="10" y="1" /><rect fill="rgb(0,0,0)" height="1" width="1" x="11" y="1" /><rect fill="rgb(0,0,0)" height="1" width="1" x="12" y="1" /><rect fill="rgb(0,0,0)" height="1" width="1" x="2" y="2" /><rect fill="rgb(0,0,0)" height="1" width="1" x="3" y="2" /><rect fill="rgb(0,0,0)" height="1" width="1" x="4" y="2" /><rect fill="rgb(0,0,0)" height="1" width="1" x="5" y="2" /><rect fill="rgb(0,0,0)" height="1" width="1" x="6" y="2" /><rect fill="rgb(0,0,0)" height="1" width="1" x="7" y="2" /><rect fill="rgb(0,0,0)" height="1" width="1" x="8" y="2" /><rect fill="rgb(0,0,0)" height="1" width="1" x="9" y="2" /><rect fill="rgb(0,0,0)" height="1" width="1" x="10" y="2" /><rect fill="rgb(0,0,0)" height="1" width="1" x="11" y="2" /><rect fill="rgb(0,0,0)" height="1" width="1" x="12" y="2" /><rect fill="rgb(0,0,0)" height="1" width="1" x="13" y="2" /><rect fill="rgb(0,0,0)" height="1" width="1" x="1" y="3" /><rect fill="rgb(0,0,0)" height="1" width="1" x="2" y="3" /><rect fill="rgb(0,0,0)" height="1" width="1" x="3" y="3" /><rect fill="rgb(0,0,0)" height="1" width="1" x="4" y="3" /><rect fill="rgb(0,0,0)" height="1" width="1" x="5" y="3" /><rect fill="rgb(0,0,0)" height="1" width="1" x="6" y="3" /><rect fill="rgb(0,0,0)" height="1" width="1" x="7" y="3" /><rect fill="rgb(0,0,0)" height="1" width="1" x="8" y="3" /><rect fill="rgb(0,0,0)" height="1" width="1" x="9" y="3" /><rect fill="rgb(0,0,0)" height="1" width="1" x="10" y="3" /><rect fill="rgb(0,0,0)" height="1" width="1" x="11" y="3" /><rect fill="rgb(0,0,0)" height="1" width="1" x="12" y="3" /><rect fill="rgb(0,0,0)" height="1" width="1" x="13" y="3" /><rect fill="rgb(0,0,0)" height="1" width="1" x="1" y="4" /><rect fill="rgb(0,0,0)" height="1" width="1" x="2" y="4" /><rect fill="rgb(0,0,0)" height="1" width="1" x="3" y="4" /><rect fill="rgb(0,0,0)" height="1" width="1" x="4" y="4" /><rect fill="rgb(0,0,0)" height="1" width="1" x="5" y="4" /><rect fill="rgb(0,0,0)" height="1" width="1" x="6" y="4" /><rect fill="rgb(0,0,0)" height="1" width="1" x="7" y="4" /><rect fill="rgb(0,0,0)" height="1" width="1" x="8" y="4" /><rect fill="rgb(0,0,0)" height="1" width="1" x="9" y="4" /><rect fill="rgb(0,0,0)" height="1" width="1" x="10" y="4" /><rect fill="rgb(0,0,0)" height="1" width="1" x="11" y="4" /><rect fill="rgb(0,0,0)" height="1" width="1" x="12" y="4" /><rect fill="rgb(0,0,0)" height="1" width="1" x="1" y="5" /><rect fill="rgb(0,0,0)" height="1" width="1" x="2" y="5" /><rect fill="rgb(0,0,0)" height="1" width="1" x="3" y="5" /><rect fill="rgb(0,0,0)" height="1" width="1" x="4" y="5" /><rect fill="rgb(0,0,0)" height="1" width="1" x="1" y="6" /><rect fill="rgb(0,0,0)" height="1" width="1" x="2" y="6" /><rect fill="rgb(0,0,0)" height="1" width="1" x="3" y="6" /><rect fill="rgb(0,0,0)" height="1" width="1" x="4" y="6" /><rect fill="rgb(0,0,0)" height="1" width="1" x="1" y="7" /><rect fill="rgb(0,0,0)" height="1" width="1" x="2" y="7" /><rect fill="rgb(0,0,0)" height="1" width="1" x="3" y="7" /><rect fill="rgb(0,0,0)" height="1" width="1" x="4" y="7" /><rect fill="rgb(0,0,0)" height="1" width="1" x="16" y="7" /><rect fill="rgb(0,0,0)" height="1" width="1" x="17" y="7" /><rect fill="rgb(0,0,0)" height="1" width="1" x="18" y="7" /><rect fill="rgb(0,0,0)" height="1" width="1" x="1" y="8" /><rect fill="rgb(0,0,0)" height="1" width="1" x="2" y="8" /><rect fill="rgb(0,0,0)" height="1" width="1" x="3" y="8" /><rect fill="rgb(0,0,0)" height="1" width="1" x="4" y="8" /><rect fill="rgb(0,0,0)" height="1" width="1" x="16" y="8" /><rect fill="rgb(0,0,0)" height="1" width="1" x="17" y="8" /><rect fill="rgb(0,0,0)" height="1" width="1" x="18" y="8" /><rect fill="rgb(0,0,0)" height="1" width="1" x="19" y="8" /><rect fill="rgb(0,0,0)" height="1" width="1" x="1" y="9" /><rect fill="rgb(0,0,0)" height="1" width="1" x="2" y="9" /><rect fill="rgb(0,0,0)" height="1" width="1" x="3" y="9" /><rect fill="rgb(0,0,0)" height="1" width="1" x="4" y="9" /><rect fill="rgb(0,0,0)" height="1" width="1" x="16" y="9" /><rect fill="rgb(0,0,0)" height="1" width="1" x="17" y="9" /><rect fill="rgb(0,0,0)" height="1" width="1" x="18" y="9" /><rect fill="rgb(0,0,0)" height="1" width="1" x="19" y="9" /><rect fill="rgb(0,0,0)" height="1" width="1" x="20" y="9" /><rect fill="rgb(0,0,0)" height="1" width="1" x="1" y="10" /><rect fill="rgb(0,0,0)" height="1" width="1" x="2" y="10" /><rect fill="rgb(0,0,0)" height="1" width="1" x="3" y="10" /><rect fill="rgb(0,0,0)" height="1" width="1" x="4" y="10" /><rect fill="rgb(0,0,0)" height="1" width="1" x="7" y="10" /><rect fill="rgb(0,0,0)" height="1" width="1" x="8" y="10" /><rect fill="rgb(0,0,0)" height="1" width="1" x="9" y="10" /><rect fill="rgb(0,0,0)" height="1" width="1" x="10" y="10" /><rect fill="rgb(0,0,0)" height="1" width="1" x="11" y="10" /><rect fill="rgb(0,0,0)" height="1" width="1" x="12" y="10" /><rect fill="rgb(0,0,0)" height="1" width="1" x="13" y="10" /><rect fill="rgb(0,0,0)" height="1" width="1" x="14" y="10" /><rect fill="rgb(0,0,0)" height="1" width="1" x="15" y="10" /><rect fill="rgb(0,0,0)" height="1" width="1" x="16" y="10" /><rect fill="rgb(0,0,0)" height="1" width="1" x="17" y="10" /><rect fill="rgb(0,0,0)" height="1" width="1" x="18" y="10" /><rect fill="rgb(0,0,0)" height="1" width="1" x="19" y="10" /><rect fill="rgb(0,0,0)" height="1" width="1" x="20" y="10" /><rect fill="rgb(0,0,0)" height="1" width="1" x="21" y="10" /><rect fill="rgb(0,0,0)" height="1" width="1" x="1" y="11" /><rect fill="rgb(0,0,0)" height="1" width="1" x="2" y="11" /><rect fill="rgb(0,0,0)" height="1" width="1" x="3" y="11" /><rect fill="rgb(0,0,0)" height="1" width="1" x="4" y="11" /><rect fill="rgb(0,0,0)" height="1" width="1" x="6" y="11" /><rect fill="rgb(0,0,0)" height="1" width="1" x="7" y="11" /><rect fill="rgb(0,0,0)" height="1" width="1" x="8" y="11" /><rect fill="rgb(0,0,0)" height="1" width="1" x="9" y="11" /><rect fill="rgb(0,0,0)" height="1" width="1" x="10" y="11" /><rect fill="rgb(0,0,0)" height="1" width="1" x="11" y="11" /><rect fill="rgb(0,0,0)" height="1" width="1" x="12" y="11" /><rect fill="rgb(0,0,0)" height="1" width="1" x="13" y="11" /><rect fill="rgb(0,0,0)" height="1" width="1" x="14" y="11" /><rect fill="rgb(0,0,0)" height="1" width="1" x="15" y="11" /><rect fill="rgb(0,0,0)" height="1" width="1" x="16" y="11" /><rect fill="rgb(0,0,0)" height="1" width="1" x="17" y="11" /><rect fill="rgb(0,0,0)" height="1" width="1" x="18" y="11" /><rect fill="rgb(0,0,0)" height="1" width="1" x="19" y="11" /><rect fill="rgb(0,0,0)" height="1" width="1" x="20" y="11" /><rect fill="rgb(0,0,0)" height="1" width="1" x="21" y="11" /><rect fill="rgb(0,0,0)" height="1" width="1" x="22" y="11" /><rect fill="rgb(0,0,0)" height="1" width="1" x="1" y="12" /><rect fill="rgb(0,0,0)" height="1" width="1" x="2" y="12" /><rect fill="rgb(0,0,0)" height="1" width="1" x="3" y="12" /><rect fill="rgb(0,0,0)" height="1" width="1" x="4" y="12" /><rect fill="rgb(0,0,0)" height="1" width="1" x="6" y="12" /><rect fill="rgb(0,0,0)" height="1" width="1" x="7" y="12" /><rect fill="rgb(0,0,0)" height="1" width="1" x="8" y="12" /><rect fill="rgb(0,0,0)" height="1" width="1" x="9" y="12" /><rect fill="rgb(0,0,0)" height="1" width="1" x="10" y="12" /><rect fill="rgb(0,0,0)" height="1" width="1" x="11" y="12" /><rect fill="rgb(0,0,0)" height="1" width="1" x="12" y="12" /><rect fill="rgb(0,0,0)" height="1" width="1" x="13" y="12" /><rect fill="rgb(0,0,0)" height="1" width="1" x="14" y="12" /><rect fill="rgb(0,0,0)" height="1" width="1" x="15" y="12" /><rect fill="rgb(0,0,0)" height="1" width="1" x="16" y="12" /><rect fill="rgb(0,0,0)" height="1" width="1" x="17" y="12" /><rect fill="rgb(0,0,0)" height="1" width="1" x="18" y="12" /><rect fill="rgb(0,0,0)" height="1" width="1" x="19" y="12" /><rect fill="rgb(0,0,0)" height="1" width="1" x="20" y="12" /><rect fill="rgb(0,0,0)" height="1" width="1" x="21" y="12" /><rect fill="rgb(0,0,0)" height="1" width="1" x="22" y="12" /><rect fill="rgb(0,0,0)" height="1" width="1" x="1" y="13" /><rect fill="rgb(0,0,0)" height="1" width="1" x="2" y="13" /><rect fill="rgb(0,0,0)" height="1" width="1" x="3" y="13" /><rect fill="rgb(0,0,0)" height="1" width="1" x="4" y="13" /><rect fill="rgb(0,0,0)" height="1" width="1" x="7" y="13" /><rect fill="rgb(0,0,0)" height="1" width="1" x="8" y="13" /><rect fill="rgb(0,0,0)" height="1" width="1" x="9" y="13" /><rect fill="rgb(0,0,0)" height="1" width="1" x="10" y="13" /><rect fill="rgb(0,0,0)" height="1" width="1" x="11" y="13" /><rect fill="rgb(0,0,0)" height="1" width="1" x="12" y="13" /><rect fill="rgb(0,0,0)" height="1" width="1" x="13" y="13" /><rect fill="rgb(0,0,0)" height="1" width="1" x="14" y="13" /><rect fill="rgb(0,0,0)" height="1" width="1" x="15" y="13" /><rect fill="rgb(0,0,0)" height="1" width="1" x="16" y="13" /><rect fill="rgb(0,0,0)" height="1" width="1" x="17" y="13" /><rect fill="rgb(0,0,0)" height="1" width="1" x="18" y="13" /><rect fill="rgb(0,0,0)" height="1" width="1" x="19" y="13" /><rect fill="rgb(0,0,0)" height="1" width="1" x="20" y="13" /><rect fill="rgb(0,0,0)" height="1" width="1" x="21" y="13" /><rect fill="rgb(0,0,0)" height="1" width="1" x="1" y="14" /><rect fill="rgb(0,0,0)" height="1" width="1" x="2" y="14" /><rect fill="rgb(0,0,0)" height="1" width="1" x="3" y="14" /><rect fill="rgb(0,0,0)" height="1" width="1" x="4" y="14" /><rect fill="rgb(0,0,0)" height="1" width="1" x="16" y="14" /><rect fill="rgb(0,0,0)" height="1" width="1" x="17" y="14" /><rect fill="rgb(0,0,0)" height="1" width="1" x="18" y="14" /><rect fill="rgb(0,0,0)" height="1" width="1" x="19" y="14" /><rect fill="rgb(0,0,0)" height="1" width="1" x="20" y="14" /><rect fill="rgb(0,0,0)" height="1" width="1" x="1" y="15" /><rect fill="rgb(0,0,0)" height="1" width="1" x="2" y="15" /><rect fill="rgb(0,0,0)" height="1" width="1" x="3" y="15" /><rect fill="rgb(0,0,0)" height="1" width="1" x="4" y="15" /><rect fill="rgb(0,0,0)" height="1" width="1" x="16" y="15" /><rect fill="rgb(0,0,0)" height="1" width="1" x="17" y="15" /><rect fill="rgb(0,0,0)" height="1" width="1" x="18" y="15" /><rect fill="rgb(0,0,0)" height="1" width="1" x="19" y="15" /><rect fill="rgb(0,0,0)" height="1" width="1" x="1" y="16" /><rect fill="rgb(0,0,0)" height="1" width="1" x="2" y="16" /><rect fill="rgb(0,0,0)" height="1" width="1" x="3" y="16" /><rect fill="rgb(0,0,0)" height="1" width="1" x="4" y="16" /><rect fill="rgb(0,0,0)" height="1" width="1" x="16" y="16" /><rect fill="rgb(0,0,0)" height="1" width="1" x="17" y="16" /><rect fill="rgb(0,0,0)" height="1" width="1" x="18" y="16" /><rect fill="rgb(0,0,0)" height="1" width="1" x="1" y="17" /><rect fill="rgb(0,0,0)" height="1" width="1" x="2" y="17" /><rect fill="rgb(0,0,0)" height="1" width="1" x="3" y="17" /><rect fill="rgb(0,0,0)" height="1" width="1" x="4" y="17" /><rect fill="rgb(0,0,0)" height="1" width="1" x="1" y="18" /><rect fill="rgb(0,0,0)" height="1" width="1" x="2" y="18" /><rect fill="rgb(0,0,0)" height="1" width="1" x="3" y="18" /><rect fill="rgb(0,0,0)" height="1" width="1" x="4" y="18" /><rect fill="rgb(0,0,0)" height="1" width="1" x="1" y="19" /><rect fill="rgb(0,0,0)" height="1" width="1" x="2" y="19" /><rect fill="rgb(0,0,0)" height="1" width="1" x="3" y="19" /><rect fill="rgb(0,0,0)" height="1" width="1" x="4" y="19" /><rect fill="rgb(0,0,0)" height="1" width="1" x="5" y="19" /><rect fill="rgb(0,0,0)" height="1" width="1" x="6" y="19" /><rect fill="rgb(0,0,0)" height="1" width="1" x="7" y="19" /><rect fill="rgb(0,0,0)" height="1" width="1" x="8" y="19" /><rect fill="rgb(0,0,0)" height="1" width="1" x="9" y="19" /><rect fill="rgb(0,0,0)" height="1" width="1" x="10" y="19" /><rect fill="rgb(0,0,0)" height="1" width="1" x="11" y="19" /><rect fill="rgb(0,0,0)" height="1" width="1" x="12" y="19" /><rect fill="rgb(0,0,0)" height="1" width="1" x="2" y="20" /><rect fill="rgb(0,0,0)" height="1" width="1" x="3" y="20" /><rect fill="rgb(0,0,0)" height="1" width="1" x="4" y="20" /><rect fill="rgb(0,0,0)" height="1" width="1" x="5" y="20" /><rect fill="rgb(0,0,0)" height="1" width="1" x="6" y="20" /><rect fill="rgb(0,0,0)" height="1" width="1" x="7" y="20" /><rect fill="rgb(0,0,0)" height="1" width="1" x="8" y="20" /><rect fill="rgb(0,0,0)" height="1" width="1" x="9" y="20" /><rect fill="rgb(0,0,0)" height="1" width="1" x="10" y="20" /><rect fill="rgb(0,0,0)" height="1" width="1" x="11" y="20" /><rect fill="rgb(0,0,0)" height="1" width="1" x="12" y="20" /><rect fill="rgb(0,0,0)" height="1" width="1" x="13" y="20" /><rect fill="rgb(0,0,0)" height="1" width="1" x="2" y="21" /><rect fill="rgb(0,0,0)" height="1" width="1" x="3" y="21" /><rect fill="rgb(0,0,0)" height="1" width="1" x="4" y="21" /><rect fill="rgb(0,0,0)" height="1" width="1" x="5" y="21" /><rect fill="rgb(0,0,0)" height="1" width="1" x="6" y="21" /><rect fill="rgb(0,0,0)" height="1" width="1" x="7" y="21" /><rect fill="rgb(0,0,0)" height="1" width="1" x="8" y="21" /><rect fill="rgb(0,0,0)" height="1" width="1" x="9" y="21" /><rect fill="rgb(0,0,0)" height="1" width="1" x="10" y="21" /><rect fill="rgb(0,0,0)" height="1" width="1" x="11" y="21" /><rect fill="rgb(0,0,0)" height="1" width="1" x="12" y="21" /><rect fill="rgb(0,0,0)" height="1" width="1" x="13" y="21" /><rect fill="rgb(0,0,0)" height="1" width="1" x="4" y="22" /><rect fill="rgb(0,0,0)" height="1" width="1" x="5" y="22" /><rect fill="rgb(0,0,0)" height="1" width="1" x="6" y="22" /><rect fill="rgb(0,0,0)" height="1" width="1" x="7" y="22" /><rect fill="rgb(0,0,0)" height="1" width="1" x="8" y="22" /><rect fill="rgb(0,0,0)" height="1" width="1" x="9" y="22" /><rect fill="rgb(0,0,0)" height="1" width="1" x="10" y="22" /><rect fill="rgb(0,0,0)" height="1" width="1" x="11" y="22" /><rect fill="rgb(0,0,0)" height="1" width="1" x="12" y="22" /></svg>