<?xml version="1.0" standalone="no"?>
<!DOCTYPE svg PUBLIC "-//W3C//DTD SVG 20010904//EN"
 "http://www.w3.org/TR/2001/REC-SVG-20010904/DTD/svg10.dtd">
<svg version="1.0" xmlns="http://www.w3.org/2000/svg"
 width="32.000000pt" height="32.000000pt" viewBox="0 0 32.000000 32.000000"
 preserveAspectRatio="xMidYMid meet">

<g transform="translate(0.000000,32.000000) scale(0.100000,-0.100000)"
fill="#000000" stroke="none">
<path d="M50 160 l0 -130 90 0 90 0 0 29 c0 17 -4 33 -10 36 -6 4 -10 -5 -10
-19 0 -25 -2 -26 -70 -26 l-70 0 0 110 0 110 70 0 c68 0 70 -1 70 -26 0 -14 4
-23 10 -19 6 3 10 19 10 36 l0 29 -90 0 -90 0 0 -130z"/>
<path d="M230 185 c11 -13 5 -15 -49 -15 -34 0 -61 -4 -61 -10 0 -6 27 -10 61
-10 54 0 60 -2 49 -15 -20 -24 13 -19 35 5 17 19 17 21 0 40 -22 24 -55 29
-35 5z"/>
</g>
</svg>
